<svg width="20" height="20" xmlns="http://www.w3.org/2000/svg" fill="none">
 <g>
  <title>Layer 1</title>
  <path d="m7.73024,0.78835c1.27,-1.00899 3.04996,-1.049 4.35896,-0.12l0.161,0.12l6.089,4.871c0.67,0.519 1.081,1.29001 1.151,2.129l0.01,0.201l0,8.10905c0,2.09 -1.651,3.79 -3.72,3.9l-1.99,0c-0.951,-0.019 -1.72,-0.759 -1.79,-1.689l-0.01,-0.141l0,-2.859c0,-0.311 -0.231,-0.57 -0.54,-0.621l-0.09,-0.01l-2.67096,0c-0.319,0.01 -0.579,0.24 -0.619,0.54l-0.01,0.091l0,2.85c0,0.059 -0.011,0.129 -0.02,0.179l-0.01,0.021l-0.011,0.069c-0.119,0.851 -0.819,1.5 -1.689,1.561l-0.13,0.009l-1.79,0c-2.09,0 -3.8,-1.639 -3.91,-3.7l0,-8.30905c0.009,-0.851 0.38,-1.641 1,-2.191l6.23,-5.00999l0,-0.00001zm3.64996,1.09c-0.76,-0.61 -1.83995,-0.639 -2.63996,-0.11l-0.151,0.11l-6.08,4.90101c-0.349,0.25899 -0.559,0.649 -0.609,1.059l-0.011,0.15999l0,8.10005c0,1.33 1.04,2.42 2.361,2.5l1.95,0c0.22,0 0.41,-0.149 0.439,-0.359l0.021,-0.18l0.01,-0.051l0,-2.699c0,-1.07 0.82,-1.94 1.87,-2.021l2.81996,0c1.069,0 1.939,0.821 2.02,1.871l0,3.009c0,0.21 0.15,0.391 0.35,0.43l1.859,0c1.34,0 2.43,-1.029 2.51,-2.34l0.011,-0.16l0,-8.10005c-0.011,-0.42899 -0.19,-0.83 -0.5,-1.129l-0.13,-0.111l-6.1,-4.88z" fill="#000000" id="svg_1"/>
 </g>

</svg>