<svg width="20" height="20" xmlns="http://www.w3.org/2000/svg" version="1.1">

 <g>
  <title>Layer 1</title>
  <svg id="svg_2" viewBox="0 0 34 32" fill="#000000" height="20" width="20" xmlns="http://www.w3.org/2000/svg">
   <path id="svg_3" d="m28.6668,0.33337l-23.3333,0c-2.75667,0 -5,2.24334 -5,5l0,4.71833c0,1.755 0.63666,3.35 1.66666,4.5767l0,15.705c0,0.442 0.1756,0.8659 0.48816,1.1785c0.31256,0.3125 0.73648,0.4881 1.17851,0.4881l13.33337,0c0.442,0 0.8659,-0.1756 1.1785,-0.4881c0.3125,-0.3126 0.4881,-0.7365 0.4881,-1.1785l0,-8.3334l6.6667,0l0,8.3334c0,0.442 0.1756,0.8659 0.4881,1.1785c0.3126,0.3125 0.7365,0.4881 1.1786,0.4881l3.3333,0c0.442,0 0.8659,-0.1756 1.1785,-0.4881c0.3126,-0.3126 0.4882,-0.7365 0.4882,-1.1785l0,-15.7067c1.03,-1.225 1.6666,-2.82 1.6666,-4.5767l0,-4.71663c0,-2.75666 -2.2433,-5 -5,-5zm1.6667,5l0,4.71833c0,1.9 -1.415,3.52 -3.1517,3.6117l-0.1816,0.0033c-1.8384,0 -3.3334,-1.495 -3.3334,-3.3333l0,-6.66669l5,0c0.92,0 1.6667,0.74833 1.6667,1.66666zm-16.6667,5.00003l0,-6.66669l6.6667,0l0,6.66669c0,1.8383 -1.495,3.3333 -3.3333,3.3333c-1.8384,0 -3.3334,-1.495 -3.3334,-3.3333zm-9.99997,-5.00003c0,-0.91833 0.74667,-1.66666 1.66667,-1.66666l5,0l0,6.66669c0,1.8383 -1.495,3.3333 -3.33334,3.3333l-0.18166,-0.005c-1.73667,-0.09 -3.15167,-1.71 -3.15167,-3.61l0,-4.71833zm9.99997,18.33333l-6.66664,0l0,-5l6.66664,0l0,5z" fill="#000000"/>

  </svg>
 </g>
</svg>