<svg width="20" height="20" xmlns="http://www.w3.org/2000/svg" version="1.1">

 <g>
  <title>Layer 1</title>
  <g id="SvgjsG1032">
   <svg id="svg_1" viewBox="0 0 21 21" fill="none" height="20" width="20" xmlns="http://www.w3.org/2000/svg">
    <path id="svg_2" class="color3B5162 svgShape" d="m9.33097,0.02148c2.37923,0 4.32113,1.87394 4.43013,4.22624l0.0049,0.20876l0,0.933c0,0.41422 -0.3358,0.75 -0.75,0.75c-0.3797,0 -0.6935,-0.28215 -0.7432,-0.64823l-0.0068,-0.10177l0,-0.933c0,-1.5629 -1.222,-2.84073 -2.76259,-2.93001l-0.17244,-0.00499l-4.875,0c-1.56205,0 -2.83974,1.22214 -2.92901,2.76258l-0.00499,0.17242l0,11.13002c0,1.5628 1.22191,2.8407 2.76166,2.93l0.17234,0.005l4.885,0c1.55733,0 2.83103,-1.2176 2.92003,-2.7522l0.005,-0.1718l0,-0.943c0,-0.4142 0.3358,-0.75 0.75,-0.75c0.3797,0 0.6935,0.2821 0.7431,0.6482l0.0069,0.1018l0,0.943c0,2.3712 -1.8668,4.3071 -4.21067,4.4189l-0.21436,0.0051l-4.885,0c-2.37844,0 -4.32016,-1.8741 -4.42917,-4.2263l-0.00483,-0.2087l0,-11.13002c0,-2.37905 1.87376,-4.32113 4.22531,-4.43017l0.20869,-0.00483l4.875,0zm7.99503,6.48086l0.0843,0.07244l2.928,2.915c0.0264,0.02616 0.0495,0.05278 0.0707,0.08095l-0.0707,-0.08095c0.0306,0.03041 0.058,0.0628 0.0822,0.09675c0.0171,0.02375 0.0328,0.04885 0.0471,0.07489c0.0026,0.00506 0.0052,0.01003 0.0078,0.01503c0.0127,0.02397 0.0239,0.04884 0.0338,0.07439c0.004,0.01118 0.0081,0.0225 0.0119,0.03389c0.0073,0.02102 0.0134,0.04267 0.0186,0.06469c0.0024,0.01176 0.0048,0.02344 0.007,0.03515c0.0041,0.02044 0.0071,0.04153 0.0092,0.06288c0.0011,0.01486 0.0021,0.02956 0.0027,0.04429c0.0007,0.00986 0.0009,0.01976 0.0009,0.02966l-0.0009,0.0283c-0.0005,0.0154 -0.0016,0.0308 -0.0031,0.0461l0.004,-0.0744c0,0.0468 -0.0043,0.0927 -0.0125,0.1371c-0.0025,0.0111 -0.0049,0.0229 -0.0076,0.0345c-0.0051,0.0232 -0.0115,0.0457 -0.0189,0.0677c-0.0038,0.0102 -0.0075,0.0206 -0.0115,0.0308c-0.0093,0.0249 -0.0201,0.049 -0.0321,0.0724c-0.003,0.0053 -0.0061,0.0112 -0.0094,0.0171c-0.0344,0.0633 -0.0775,0.1205 -0.1277,0.1707l-0.0014,0.001l-2.928,2.916c-0.2935,0.2923 -0.7684,0.2913 -1.0606,-0.0022c-0.2658,-0.2668 -0.2891,-0.6835 -0.0707,-0.9767l0.0728,-0.0839l1.6391,-1.6354l-10.22253,0.0009c-0.41421,0 -0.75,-0.3358 -0.75,-0.75c0,-0.37971 0.28216,-0.69351 0.64823,-0.74317l0.10177,-0.00684l10.22453,-0.00091l-1.641,-1.63269c-0.2668,-0.26567 -0.292,-0.68228 -0.0748,-0.97637l0.0725,-0.08428c0.2656,-0.26686 0.6822,-0.292 0.9763,-0.0748z" fill="#000000"/>
   </svg>
  </g>
 </g>
</svg>