<svg width="20" height="20" xmlns="http://www.w3.org/2000/svg" version="1.1">

 <g>
  <title>Layer 1</title>
  <g id="SvgjsG1013">
   <svg id="svg_1" viewBox="0 0 21 19" fill="none" height="20" width="20" xmlns="http://www.w3.org/2000/svg">
    <path id="svg_2" class="color3B5162 svgShape" d="m15.3212,0.75806c1.5139,0.01705 2.9549,0.65793 3.9873,1.77344c1.0323,1.11551 1.566,2.60826 1.478,4.08553l-0.0013,6.23697c0.0893,1.5223 -0.4444,3.0151 -1.4767,4.1306c-1.0324,1.1155 -2.4734,1.7564 -3.9958,1.7735l-9.06062,0c-3.16953,0 -5.45618,-2.5616 -5.45618,-5.859l0,-6.28207c0,-3.29746 2.28665,-5.85897 5.45618,-5.85897l9.06912,0zm-0.0169,1.52838l-9.05222,0c-2.29339,0 -3.93874,1.84317 -3.93874,4.33059l0,6.28207c0,2.4874 1.64535,4.3306 3.93874,4.3306l9.05222,0c1.0989,-0.0124 2.1448,-0.4776 2.8942,-1.2873c0.7494,-0.8097 1.1367,-1.8932 1.0706,-3.0433l0.0013,-6.32716c0.0648,-1.10501 -0.3225,-2.18855 -1.0719,-2.99826c-0.7494,-0.80971 -1.7953,-1.2749 -2.8942,-1.28724zm1.5156,4.10998c0.2381,0.29956 0.216,0.72425 -0.0358,0.99715l-0.0824,0.07704l-4.107,3.31109c-0.9975,0.7831 -2.3757,0.8222 -3.41576,0.1139l-0.16131,-0.1181l-4.13447,-3.30491c-0.32822,-0.26237 -0.38314,-0.74307 -0.12265,-1.07368c0.2368,-0.30054 0.65275,-0.37358 0.97302,-0.18725l0.09294,0.06371l4.12924,3.30081c0.46299,0.36346 1.09769,0.39142 1.58099,0.08869l0.1175,-0.08257l4.0993,-3.30494c0.3271,-0.26375 0.8046,-0.21044 1.0664,0.11906z" fill="#000000"/>
   </svg>
  </g>
 </g>
</svg>