<svg width="18" height="20" xmlns="http://www.w3.org/2000/svg" fill="none">

 <g>
  <title>Layer 1</title>
  <path stroke="null" id="svg_1" fill="#000000" d="m11.608,17.6906c0.2965,0.2415 0.3435,0.6807 0.1049,0.9809c-0.1763,0.222 -0.3802,0.4207 -0.5962,0.5835c-0.7276,0.571 -1.65269,0.8299 -2.5714,0.7204c-0.91952,-0.1095 -1.7583,-0.5792 -2.33071,-1.3065c-0.23719,-0.3013 -0.18813,-0.7403 0.10959,-0.9804c0.29771,-0.2401 0.73133,-0.1904 0.96853,0.111c0.34521,0.4386 0.85398,0.7235 1.41369,0.7901c0.56051,0.0668 1.12435,-0.091 1.5762,-0.4453c0.1332,-0.1006 0.2529,-0.2173 0.3563,-0.3474c0.2386,-0.3002 0.6725,-0.3478 0.9691,-0.1063zm-9.45587,-10.69086l0.01231,-0.59583c0.0088,-0.25485 0.02242,-0.49143 0.04241,-0.72295c0.29969,-3.2364 3.3888,-5.68096 6.75794,-5.68096l0.07133,0c3.36728,0 6.45728,2.44285 6.76728,5.68536c0.0178,0.20612 0.0254,0.38922 0.0277,0.6467l0.0009,0.78776c0.0007,0.07176 0.0019,0.13487 0.0038,0.19371l0.0092,0.19624l0.0446,0.18711c0.1407,0.52114 0.388,1.00837 0.7266,1.43133l0.1507,0.17725l0.0617,0.07921c0.4062,0.60701 0.6382,1.31333 0.6714,2.07403l-0.001,0.4033c-0.0283,0.901 -0.3591,1.7711 -0.9652,2.4962c-0.8027,0.8519 -1.8904,1.3811 -3.0465,1.4875c-2.9853,0.3242 -5.9973,0.3242 -8.97434,0.0009c-1.164,-0.112 -2.24852,-0.6397 -3.08633,-1.5243c-0.61781,-0.7532 -0.94621,-1.7015 -0.92573,-2.6599l0.00085,-0.2382c0.03569,-0.7287 0.26629,-1.43435 0.66761,-2.044l0.06717,-0.08642c0.46872,-0.51385 0.78916,-1.14273 0.9282,-1.82072l-0.01504,0.06089l0.00244,-0.53421zm6.88399,-5.60439l-0.07133,0c-2.69828,0 -5.15675,1.94552 -5.38512,4.41143c-0.01169,0.1355 -0.02101,0.27529 -0.0283,0.42242l-0.01605,0.46639l-0.00653,0.91927l-0.01438,0.14181c-0.18997,0.92634 -0.62713,1.78426 -1.26512,2.48373l0.04927,-0.0571l-0.08811,0.1458c-0.16506,0.2974 -0.27155,0.6204 -0.31363,0.9391l-0.01747,0.1905l-0.00016,0.2187c-0.01351,0.6368 0.20167,1.2582 0.5745,1.7157c0.57512,0.6054 1.35313,0.9839 2.19799,1.0652c2.8876,0.3136 5.80102,0.3136 8.69972,-0.0011c0.8357,-0.077 1.6131,-0.4552 2.157,-1.0305c0.4116,-0.4937 0.6291,-1.117 0.6132,-1.7731l0.0008,-0.1635c-0.0211,-0.4715 -0.1714,-0.9288 -0.4351,-1.3229l0.0153,0.0254l-0.1379,-0.1617c-0.4754,-0.58681 -0.8207,-1.26739 -1.013,-1.99694l-0.0649,-0.27578l-0.0129,-0.09267c-0.0097,-0.13538 -0.0154,-0.25569 -0.0184,-0.40037l-0.0027,-0.90464c-0.0019,-0.23006 -0.0081,-0.38492 -0.0221,-0.54724c-0.2363,-2.47251 -2.6971,-4.41791 -5.39458,-4.41791z"/>
 </g>
</svg>