<svg width="20" height="20" xmlns="http://www.w3.org/2000/svg" version="1.1">

 <g>
  <title>Layer 1</title>
  <g id="SvgjsG1047">
   <svg id="svg_1" viewBox="0 0 20 20" fill="none" height="20" width="20" xmlns="http://www.w3.org/2000/svg">
    <path id="svg_2" class="color3B5162 svgShape" d="m10.6161,0c0.709,-0.00029 1.388,0.28061 1.8822,0.77871c0.4942,0.4981 0.7616,1.17097 0.74,1.79895l0.0085,0.14769c0.0173,0.14544 0.0656,0.28581 0.144,0.41519c0.1527,0.25513 0.4027,0.44027 0.6949,0.5146c0.2922,0.07433 0.6025,0.03174 0.8964,-0.13675l0.1639,-0.08289c1.2299,-0.56653 2.7051,-0.11632 3.3873,1.04378l0.6132,1.04246c0.0162,0.02748 0.0304,0.05588 0.0427,0.085l0.0569,0.11168c0.5484,1.14677 0.1582,2.51085 -0.8837,3.20386l-0.2573,0.1584c-0.1345,0.09188 -0.2466,0.2119 -0.3309,0.3561c-0.1524,0.25613 -0.1942,0.56117 -0.1162,0.84762c0.078,0.2864 0.2692,0.5305 0.5594,0.6949l0.1669,0.1048c0.5044,0.3456 0.8687,0.855 1.0276,1.4389c0.1793,0.6587 0.0831,1.3603 -0.272,1.9574l-0.6596,1.0766l-0.0995,0.1519c-0.775,1.0919 -2.2797,1.4255 -3.4281,0.7761l-0.1361,-0.0687c-0.142,-0.0622 -0.2952,-0.0964 -0.4346,-0.1003c-0.3034,-0.0014 -0.5948,0.116 -0.8093,0.3262c-0.2145,0.2102 -0.3344,0.4957 -0.3336,0.8276l-0.0081,0.1716c-0.111,1.3289 -1.2465,2.3586 -2.6146,2.3586l-1.23534,0c-1.44887,0 -2.62341,-1.1507 -2.62194,-2.5247l-0.00849,-0.1476c-0.01726,-0.1455 -0.06559,-0.2859 -0.14793,-0.422c-0.14934,-0.2557 -0.39679,-0.4424 -0.68732,-0.5186c-0.29054,-0.0762 -0.60009,-0.0355 -0.89973,0.1342l-0.17803,0.0871c-0.56302,0.2481 -1.19809,0.2939 -1.79317,0.1282c-0.67139,-0.1869 -1.23906,-0.6283 -1.57033,-1.2142l-0.63733,-1.0782l-0.08482,-0.1598c-0.5804,-1.2003 -0.12546,-2.6432 1.02918,-3.2969l0.1053,-0.0647c0.30846,-0.2091 0.49342,-0.554 0.49342,-0.9228c0,-0.40104 -0.21838,-0.77162 -0.60039,-0.98849l-0.15499,-0.09743c-1.11448,-0.75932 -1.455,-2.23359 -0.76459,-3.40712l0.64928,-1.0453c0.7221,-1.2279 2.32237,-1.65149 3.55317,-0.95995l0.13324,0.06959c0.13582,0.06108 0.28336,0.0935 0.42542,0.09498c0.62641,0.00006 1.13674,-0.49276 1.14623,-1.12447l0.00851,-0.19401c0.05129,-0.60064 0.31732,-1.1651 0.75221,-1.59323c0.49065,-0.48302 1.15754,-0.75457 1.8531,-0.75457l1.23504,0zm0.0003,1.44774l-1.23534,0c-0.30243,0 -0.5924,0.11807 -0.80573,0.32808c-0.18908,0.18614 -0.30475,0.43159 -0.32505,0.66079l-0.01343,0.30489c-0.10346,1.32937 -1.23716,2.37266 -2.62359,2.37248c-0.35738,-0.00364 -0.70971,-0.08105 -1.06899,-0.24372l-0.19237,-0.09941c-0.5481,-0.3077 -1.247,-0.1227 -1.57133,0.4284l-0.64929,1.0453c-0.29751,0.50589 -0.14872,1.15011 0.31196,1.4647l0.26071,0.16175c0.71801,0.47566 1.15359,1.27195 1.15359,2.129c0,0.8446 -0.42341,1.634 -1.15535,2.1296l-0.1558,0.096c-0.51285,0.2907 -0.71077,0.9184 -0.47241,1.4127l0.05629,0.1066l0.62925,1.0635c0.14776,0.2612 0.39568,0.454 0.6889,0.5356c0.25989,0.0724 0.53727,0.0524 0.75366,-0.0422l0.10872,-0.0521c0.60016,-0.3431 1.31534,-0.4371 1.98657,-0.2611c0.67124,0.1759 1.24291,0.6073 1.582,1.1882c0.18242,0.3012 0.29784,0.6364 0.34253,1.0217l0.02015,0.3535c0.06221,0.5625 0.54842,1.0003 1.13901,1.0003l1.23534,0c0.5973,0 1.0935,-0.45 1.1401,-1.0012l0.0056,-0.109c-0.0033,-0.6836 0.2724,-1.3402 0.7658,-1.8236c0.4933,-0.4834 1.1635,-0.7535 1.8774,-0.7499c0.3503,0.0092 0.6951,0.0861 1.0475,0.2414l0.3159,0.1582c0.496,0.2132 1.0842,0.0576 1.3824,-0.3615l0.0725,-0.111l0.6444,-1.0521c0.1523,-0.2561 0.1941,-0.5612 0.1161,-0.8476c-0.0691,-0.2538 -0.2275,-0.4753 -0.4196,-0.6078l-0.2723,-0.1687c-0.5206,-0.3447 -0.899,-0.8632 -1.062,-1.4621c-0.1793,-0.65874 -0.0831,-1.36033 0.2644,-1.94478c0.1903,-0.32546 0.4518,-0.60529 0.7927,-0.8373l0.1607,-0.09919c0.5121,-0.29343 0.7098,-0.92109 0.4732,-1.41729l-0.0707,-0.13355l-0.0127,-0.02803l-0.5848,-0.99518c-0.2766,-0.47033 -0.8522,-0.67355 -1.3405,-0.51298l-0.111,0.04355l-0.1032,0.0515c-0.5982,0.34526 -1.312,0.44321 -1.984,0.27226c-0.672,-0.17095 -1.247,-0.59676 -1.5962,-1.18025c-0.1824,-0.30112 -0.2978,-0.63632 -0.3425,-1.02162l-0.0132,-0.25205c0.0089,-0.30326 -0.1078,-0.59713 -0.3237,-0.81466c-0.2158,-0.21754 -0.5123,-0.34009 -0.8223,-0.34009zm-0.6132,5.28408c1.8423,0 3.3358,1.46321 3.3358,3.26818c0,1.805 -1.4935,3.2682 -3.3358,3.2682c-1.84225,0 -3.33572,-1.4632 -3.33572,-3.2682c0,-1.80497 1.49347,-3.26818 3.33572,-3.26818zm0,1.44774c-1.02615,0 -1.85804,0.81504 -1.85804,1.82044c0,1.0054 0.83189,1.8204 1.85804,1.8204c1.0262,0 1.8581,-0.815 1.8581,-1.8204c0,-1.0054 -0.8319,-1.82044 -1.8581,-1.82044z" fill="#000000"/>
   </svg>
  </g>
 </g>
</svg>